<?xml version="1.0" encoding="utf-8"?>
<!-- Generator: Adobe Illustrator 22.0.1, SVG Export Plug-In . SVG Version: 6.00 Build 0)  -->
<svg version="1.1" id="Layer_1" xmlns:svg="http://www.w3.org/2000/svg"
	 xmlns="http://www.w3.org/2000/svg" xmlns:xlink="http://www.w3.org/1999/xlink" x="0px" y="0px" viewBox="0 0 270.7 65.2"
	 style="enable-background:new 0 0 270.7 65.2;" xml:space="preserve">
<g id="g236">
	<path id="path238" d="M0,31.1c4.1-1.3,4.5-4.4,4.5-9.6V10.3c0-4.9,3.3-8.1,5.1-8.1H14v4.4h-2.4c-2.2,0-2.2,1.8-2.2,4.6v11.3
		c0,7-3.8,10-4.6,10.5c0.8,0.5,4.6,3.5,4.6,10.6v11.3c0,2.8,0,4.6,2.2,4.6H14v4.4H9.6c-1.8,0-5.1-3.2-5.1-8.1V44.6
		c0-5.3-0.4-8.4-4.5-9.7V31.1z"/>
	<path id="path240" d="M44.8,24.7h0.1c2-2.7,4.6-4.2,8-4.2c7.8,0,9.6,5.6,9.6,12.2v16.7h-4.8V33.6c0-4.6-0.4-8.6-5.9-8.6
		c-6.6,0-7,6.1-7,11.2v13.4H40V21.3h4.8L44.8,24.7L44.8,24.7z"/>
	<path id="path242" d="M69.2,35.5c0-8.3,6.5-14.9,14.8-14.9s14.8,6.7,14.8,14.9S92.2,50.3,84,50.3S69.2,43.7,69.2,35.5z M74,35.4
		c0,5.8,4.1,10.4,10,10.4c5.9,0,10-4.7,10-10.4C94,29.7,89.9,25,84,25S74,29.7,74,35.4z"/>
	<path id="path244" d="M128.6,49.5h-4.8V0h4.8V49.5z"/>
	<path id="path246" d="M135,35.5c0-8.3,6.5-14.9,14.8-14.9s14.8,6.7,14.8,14.9s-6.6,14.8-14.8,14.8S135,43.7,135,35.5z M139.8,35.4
		c0,5.8,4.1,10.4,10,10.4c5.9,0,10-4.7,10-10.4c0-5.7-4.1-10.4-10-10.4C143.9,25,139.8,29.7,139.8,35.4z"/>
	<path id="path248" d="M196.7,48.1c0,4.5,0,8.4-2.9,12.1c-2.6,3.4-6.7,5-10.9,5c-7.9,0-13.7-5-13.9-13h4.8c0.1,5.2,3.8,8.5,9,8.5
		c7.4,0,9.1-5.5,9.1-11.8v-3.4h-0.1c-2.3,2.9-6,4.7-9.8,4.7c-8.2,0-13.4-6.9-13.4-14.8c0-7.9,5.3-15,13.6-15c3.9,0,7.3,1.7,9.6,4.8
		h0.1v-4h4.8L196.7,48.1L196.7,48.1z M173.5,35.1c0,5.5,3.2,10.7,9.2,10.7c6.2,0,9.4-5,9.4-10.7c0-5.6-3.5-10.2-9.5-10.2
		C177.1,25,173.5,29.8,173.5,35.1z"/>
	<path id="path250" d="M203.5,35.5c0-8.3,6.5-14.9,14.8-14.9c8.3,0,14.8,6.7,14.8,14.9s-6.6,14.8-14.8,14.8
		C210.1,50.3,203.5,43.7,203.5,35.5z M208.3,35.4c0,5.8,4.1,10.4,10,10.4s10-4.7,10-10.4c0-5.7-4.1-10.4-10-10.4
		C212.4,25,208.3,29.7,208.3,35.4z"/>
	<path id="path252" d="M270.7,35c-4.1,1.3-4.5,4.4-4.5,9.7v11.2c0,4.9-3.3,8.1-5.1,8.1h-4.4v-4.4h2.4c2.2,0,2.2-1.8,2.2-4.6V43.6
		c0-7.1,3.8-10.1,4.6-10.6c-0.8-0.5-4.6-3.5-4.6-10.5V11.2c0-2.8,0-4.6-2.2-4.6h-2.4V2.2h4.4c1.8,0,5.1,3.2,5.1,8.1v11.2
		c0,5.2,0.4,8.3,4.5,9.6V35z"/>
</g>
</svg>
